<?xml version="1.0" encoding="utf-8"?>
<!-- Generator: Adobe Illustrator 22.1.0, SVG Export Plug-In . SVG Version: 6.00 Build 0)  -->
<svg version="1.1" id="Laag_1" xmlns="http://www.w3.org/2000/svg" xmlns:xlink="http://www.w3.org/1999/xlink" x="0px" y="0px"
	 viewBox="0 0 125 13" style="enable-background:new 0 0 125 13;" xml:space="preserve">
<style type="text/css">
	.st0{fill:#F9F9F9;}
</style>
<g>
	<path class="st0" d="M0.6,7.8c4.9-2,10-3.3,15.2-4.4c5.2-1.1,10.4-1.9,15.7-2.2c2.6-0.3,5.3-0.3,8-0.4c1.3,0,2.7,0,4,0.1
		c1.3,0,2.7,0,4,0.2c2.7,0.2,5.3,0.4,7.9,0.8l4,0.6c1.3,0.3,2.6,0.5,3.9,0.8c1.3,0.3,2.6,0.5,3.9,0.9L71,5.3l1.9,0.6l1.8,0.5
		c1.2,0.3,2.4,0.7,3.7,1c1.2,0.2,2.5,0.6,3.7,0.7l3.8,0.5l3.8,0.2c1.3,0.1,2.6,0.1,3.9,0.1c5.1,0,10.3-0.4,15.5-1
		c5.2-0.6,10.3-1.6,15.4-2.8c-4.9,2-9.9,3.5-15.1,4.7c-5.2,1.1-10.4,2-15.8,2.2c-5.3,0.3-10.7,0-16.1-1c-1.3-0.2-2.6-0.6-4-1L69.8,9
		L66.1,8c-1.2-0.4-2.5-0.6-3.8-0.9c-1.3-0.3-2.5-0.6-3.8-0.8l-3.8-0.6c-2.5-0.5-5.1-0.6-7.7-0.9c-1.3-0.2-2.6-0.2-3.9-0.3
		c-1.3-0.1-2.6-0.2-3.9-0.2c-2.6,0-5.2-0.1-7.8,0c-5.2,0.1-10.4,0.5-15.5,1C10.9,5.9,5.7,6.7,0.6,7.8z"/>
</g>
</svg>
